<svg xmlns="http://www.w3.org/2000/svg" viewBox="0 0 1200 760" role="img" aria-label="Sindhi craft illustration">
  <defs>
    <linearGradient id="cloth" x1="0" x2="1"><stop stop-color="#f6d7b1"/><stop offset="1" stop-color="#d9f0ef"/></linearGradient>
    <pattern id="stitch" width="72" height="72" patternUnits="userSpaceOnUse"><path d="M36 8l28 28-28 28L8 36z" fill="none" stroke="#c95b45" stroke-width="5"/><circle cx="36" cy="36" r="8" fill="#1f3d68"/></pattern>
  </defs>
  <rect width="1200" height="760" fill="url(#cloth)"/>
  <path d="M228 120h744c34 0 62 28 62 62v376c0 34-28 62-62 62H228c-34 0-62-28-62-62V182c0-34 28-62 62-62z" fill="#fff7ed"/>
  <rect x="214" y="170" width="692" height="460" fill="url(#stitch)" opacity=".85"/>
  <path d="M816 254c98 54 147 133 147 236v76H670v-76c0-103 49-182 146-236z" fill="#1f3d68"/>
  <path d="M730 476h186" stroke="#f7e2b9" stroke-width="18" stroke-linecap="round"/>
  <circle cx="816" cy="392" r="42" fill="#c95b45"/><circle cx="816" cy="392" r="15" fill="#fff7ed"/>
</svg>
