<svg xmlns="http://www.w3.org/2000/svg" viewBox="0 0 1200 760" role="img" aria-label="Makli Necropolis illustration">
  <defs>
    <linearGradient id="sky" x1="0" x2="1" y1="0" y2="1"><stop stop-color="#c9e6e6"/><stop offset="1" stop-color="#f4dfbd"/></linearGradient>
    <linearGradient id="stone" x1="0" x2="0" y1="0" y2="1"><stop stop-color="#bd9362"/><stop offset="1" stop-color="#8f6742"/></linearGradient>
    <pattern id="carve" width="36" height="36" patternUnits="userSpaceOnUse"><path d="M18 4l14 14-14 14L4 18z" fill="none" stroke="#f8e7c7" stroke-width="2" opacity=".45"/></pattern>
  </defs>
  <rect width="1200" height="760" fill="url(#sky)"/>
  <circle cx="980" cy="145" r="72" fill="#f6c46f" opacity=".75"/>
  <path d="M0 580c190-74 338-58 482-36 181 28 344 30 559-54 78-31 129-45 159-45v315H0z" fill="#b98251"/>
  <path d="M144 520h250v175H144z" fill="url(#stone)"/><path d="M118 520h302l-151-130z" fill="#9d7048"/>
  <path d="M198 696V575c0-42 31-74 69-74s69 32 69 74v121z" fill="#5b3e2d"/>
  <rect x="470" y="392" width="350" height="303" fill="url(#stone)"/><rect x="470" y="392" width="350" height="303" fill="url(#carve)" opacity=".65"/>
  <path d="M440 392h380L630 216z" fill="#a07048"/><path d="M570 696V515c0-54 42-98 94-98s94 44 94 98v181z" fill="#59402e"/>
  <path d="M880 500h172v195H880z" fill="url(#stone)"/><path d="M858 500h214l-107-102z" fill="#9b6d48"/>
  <path d="M910 696V574c0-36 27-64 60-64s60 28 60 64v122z" fill="#5c402f"/>
  <path d="M0 696h1200v64H0z" fill="#5f4838" opacity=".35"/>
</svg>
